HIERARCHY
ROOT ui
{
	 OFFSET 0 0 0
	 CHANNELS 3 XPosition YPosition Z Position
	 EndSite
	 {
	 OFFSET 0 -1 0
	 }
}
ROOT li
{
	 OFFSET 0 0 0
	 CHANNELS 3 XPosition YPosition Z Position
	 EndSite
	 {
	 OFFSET 0 -1 0
	 }
}
ROOT ul
{
	 OFFSET 0 0 0
	 CHANNELS 3 XPosition YPosition Z Position
	 EndSite
	 {
	 OFFSET 0 -1 0
	 }
}
ROOT ll
{
	 OFFSET 0 0 0
	 CHANNELS 3 XPosition YPosition Z Position
	 EndSite
	 {
	 OFFSET 0 -1 0
	 }
}
ROOT tt
{
	 OFFSET 0 0 0
	 CHANNELS 3 XPosition YPosition Z Position
	 EndSite
	 {
	 OFFSET 0 -1 0
	 }
}
ROOT tb
{
	 OFFSET 0 0 0
	 CHANNELS 3 XPosition YPosition Z Position
	 EndSite
	 {
	 OFFSET 0 -1 0
	 }
}
ROOT td
{
	 OFFSET 0 0 0
	 CHANNELS 3 XPosition YPosition Z Position
	 EndSite
	 {
	 OFFSET 0 -1 0
	 }
}
ROOT v
{
	 OFFSET 0 0 0
	 CHANNELS 3 XPosition YPosition Z Position
	 EndSite
	 {
	 OFFSET 0 -1 0
	 }
}
ROOT bn
{
	 OFFSET 0 0 0
	 CHANNELS 3 XPosition YPosition Z Position
	 EndSite
	 {
	 OFFSET 0 -1 0
	 }
}
MOTION
Frames: 27
Frame Time: 0.002
0.0035421879291534426	7.469649910926819E-4	0		0.5167238159179688	-2.44060205078125	0		-1.06059375	0.28759121704101565	0		-0.22259864807128907	-3.058110107421875	0		1.859421875	-1.396212158203125	0		3.092138427734375	-0.4477080383300781	0		4.26177978515625	0.0024121708869934083	0		5.84722412109375	0.2900240783691406	0		-0.40870620727539064	5.87424658203125	0		
0.01126650047302246	-0.0012886849641799926	0		0.5244178466796875	-2.451624267578125	0		-0.9919102172851563	0.28190985107421873	0		-0.22379734802246093	-3.06006005859375	0		1.89716943359375	-1.399505859375	0		3.088843994140625	-0.4525545959472656	0		4.282361328125	-0.013648200035095214	0		5.85486767578125	0.2849732360839844	0		-0.4431571350097656	5.869626953125	0		
0.008009659767150878	-0.004204280853271484	0		0.4982802734375	-2.448295166015625	0		-1.0601805419921875	0.27862921142578123	0		-0.3548140563964844	-3.045685546875	0		1.867966796875	-1.4001141357421876	0		3.100475341796875	-0.4675495300292969	0		4.27606396484375	-0.020433338165283203	0		5.8375107421875	0.26669491577148435	0		-0.4274407958984375	5.8775078125	0		
0.010848700523376465	-0.001172448992729187	0		0.501182861328125	-2.444252685546875	0		-1.050388427734375	0.277567138671875	0		-0.20811798095703124	-3.064115966796875	0		1.9128746337890625	-1.39346630859375	0		3.146342529296875	-0.462884765625	0		4.29485205078125	-0.022469629287719728	0		5.8439248046875	0.2980045776367187	0		-0.3917320556640625	5.88019677734375	0		
0.014737751960754395	0.0028586740493774412	0		0.5290806274414063	-2.444453369140625	0		-1.06144384765625	0.2877273864746094	0		-0.33703811645507814	-3.04674853515625	0		1.912752197265625	-1.39335546875	0		3.11217236328125	-0.46540548706054685	0		4.29858056640625	-0.03434954071044922	0		5.83668603515625	0.2985110778808594	0		-0.3949737548828125	5.8832900390625	0		
0.00563918399810791	0.0040312142372131345	0		0.5160601196289063	-2.440230712890625	0		-0.9966422729492187	0.279134521484375	0		-0.22118429565429687	-3.056840576171875	0		1.9126702880859374	-1.393236572265625	0		3.11799169921875	-0.47332318115234373	0		4.322330078125	-0.04842501831054687	0		5.8373076171875	0.2953720397949219	0		-0.40929730224609373	5.87350537109375	0		
0.010520926475524902	-9.261299967765808E-4	0		0.5140173950195313	-2.4421083984375	0		-0.9967151489257813	0.27920867919921877	0		-0.2211956329345703	-3.056752197265625	0		1.9126282958984375	-1.3931087646484375	0		3.12978125	-0.48829296875	0		4.305193359375	-0.055081623077392575	0		5.83795263671875	0.29051144409179686	0		-0.4094732971191406	5.87359033203125	0		
0.007461514949798584	-0.003792180061340332	0		0.5239396362304688	-2.451095947265625	0		-1.0007894287109376	0.275335205078125	0		-0.2211719207763672	-3.05665234375	0		1.912623046875	-1.392971923828125	0		3.1728583984375	-0.4785668029785156	0		4.33208349609375	-0.0631735954284668	0		5.85065625	0.2628756103515625	0		-0.42856390380859377	5.87787744140625	0		
0.0055452480316162105	0.004342191219329834	0		0.5010545043945313	-2.44374267578125	0		-1.0598475341796876	0.27002456665039065	0		-0.3139534912109375	-3.03961083984375	0		1.9156793212890626	-1.389856201171875	0		3.14781103515625	-0.4841495361328125	0		4.3400673828125	-0.06506801605224609	0		5.85429052734375	0.27872265625	0		-0.40870782470703126	5.87278466796875	0		
0.0055744309425354	0.004468111991882324	0		0.5181805419921875	-2.437779296875	0		-0.9907759399414062	0.2744439086914062	0		-0.21294244384765626	-3.04649951171875	0		1.917759765625	-1.386720947265625	0		3.177826171875	-0.48627508544921877	0		4.33298828125	-0.07580476379394531	0		5.8543115234375	0.2790968017578125	0		-0.4087690734863281	5.872904296875	0		
0.010570423126220703	-4.447390139102936E-4	0		0.49816326904296876	-2.44743505859375	0		-1.074719482421875	0.2764049072265625	0		-0.21487193298339843	-3.048345703125	0		1.9157962646484374	-1.3895362548828125	0		3.181829345703125	-0.4911319580078125	0		4.33795556640625	-0.08365474700927734	0		5.8501376953125	0.29688330078125	0		-0.4229170837402344	5.86217578125	0		
0.0026434650421142576	0.0017817740440368652	0		0.5143084106445313	-2.44144140625	0		-0.9988538208007812	0.25778009033203125	0		-0.21477764892578124	-3.048201904296875	0		1.917897705078125	-1.386383544921875	0		3.168869384765625	-0.4928121337890625	0		4.35087890625	-0.09657783508300781	0		5.843736328125	0.29224099731445313	0		-0.4428935241699219	5.867515625	0		
0.0026904609203338625	0.001937080979347229	0		0.4983280944824219	-2.44711962890625	0		-1.0727965087890625	0.25965921020507815	0		-0.30854705810546873	-3.0331142578125	0		1.9179627685546874	-1.3862034912109376	0		3.1688232421875	-0.5026152954101563	0		4.35889697265625	-0.0994457015991211	0		5.8523076171875	0.2872443542480469	0		-0.44094253540039063	5.8656455078125	0		
0.010698010444641113	1.9771000370383263E-5	0		0.501426513671875	-2.4429814453125	0		-1.07277197265625	0.2598077697753906	0		-0.33638998413085935	-3.023677978515625	0		1.925107177734375	-1.376087158203125	0		3.20898486328125	-0.48981158447265627	0		4.36790576171875	-0.1013178939819336	0		5.8552451171875	0.3031535339355469	0		-0.4259000549316406	5.87465234375	0		
-0.06629325866699219	0.0019515609741210937	0		0.4945624084472656	-2.431739013671875	0		-0.9987938842773437	0.25822601318359373	0		-0.20042253112792968	-3.03086572265625	0		1.946138671875	-1.374104248046875	0		3.20289697265625	-0.4985434875488281	0		4.38584130859375	-0.10727347564697266	0		5.85524169921875	0.30357244873046874	0		-0.28790768432617186	5.88144287109375	0		
0.010644234657287598	3.563700020313263E-4	0		0.516475341796875	-2.438781005859375	0		-1.0028756103515626	0.2554219970703125	0		-0.34120596313476564	-3.007301513671875	0		1.92508935546875	-1.37570068359375	0		3.202854736328125	-0.4983316345214844	0		4.378685546875	-0.11797596740722656	0		5.84807568359375	0.3041717224121094	0		-0.42224606323242186	5.8609384765625	0		
-0.06946920013427735	-6.816200017929077E-4	0		0.4884220275878906	-2.437327392578125	0		-1.0160948486328125	0.2437071533203125	0		-0.2103782958984375	-3.019433837890625	0		1.9439896240234376	-1.3776934814453126	0		3.2076845703125	-0.5061681823730468	0		4.383509765625	-0.12579664611816407	0		5.8578154296875	0.26111376953125	0		-0.4564804992675781	5.855439453125	0		
0.007373085021972656	-0.0022775599956512452	0		0.5241900024414062	-2.449509765625	0		-1.0053317260742187	0.23475186157226563	0		-0.3352880249023438	-2.999034423828125	0		1.931973388671875	-1.3663826904296874	0		3.217615966796875	-0.49905804443359375	0		4.39234716796875	-0.12766048431396484	0		5.854197265625	0.2737325439453125	0		-0.4406045227050781	5.86544091796875	0		
0.007191092014312744	-0.0021159698963165285	0		0.49909014892578124	-2.4440947265625	0		-1.0095560913085937	0.23094010925292968	0		-0.315432373046875	-2.999074951171875	0		1.95282763671875	-1.3644039306640625	0		3.21447021484375	-0.4958255920410156	0		4.4062158203125	-0.12258094787597656	0		5.8491669921875	0.29675128173828125	0		-0.407804443359375	5.8712705078125	0		
0.010012048721313477	0.0010086580514907836	0		0.5279103393554687	-2.444220458984375	0		-1.0097674560546874	0.23108197021484375	0		-0.35340478515625	-2.978550537109375	0		1.9607342529296874	-1.354304931640625	0		3.232306396484375	-0.49180953979492187	0		4.41700830078125	-0.12248094940185547	0		5.86245068359375	0.26741015625	0		-0.422193115234375	5.86055859375	0		
0.006758264064788818	-0.001816190004348755	0		0.515774169921875	-2.437950927734375	0		-1.0231121826171874	0.21934420776367186	0		-0.29450857543945314	-2.9699912109375	0		1.9764755859375	-1.359294189453125	0		3.256047119140625	-0.49586285400390623	0		4.428646484375	-0.1364016876220703	0		5.862291015625	0.26778021240234373	0		-0.42248583984375	5.86069873046875	0		
0.006526741027832031	-0.0016812939643859864	0		0.5135497436523437	-2.439790771484375	0		-1.0164744262695313	0.2063995361328125	0		-0.35356689453125	-2.955279541015625	0		1.9693380126953124	-1.3510692138671876	0		3.24685107421875	-0.4926038818359375	0		4.4314755859375	-0.13024815368652343	0		5.85007958984375	0.28744357299804685	0		-0.45782913208007814	5.856173828125	0		
0.006294778823852539	-0.001558176040649414	0		0.49728466796875	-2.4455048828125	0		-1.0238655395507812	0.19058175659179688	0		-0.3137310791015625	-2.9515537109375	0		2.006088623046875	-1.3542896728515625	0		3.255593994140625	-0.49553579711914064	0		4.4441064453125	-0.14420669555664062	0		5.86756298828125	0.24235760498046874	0		-0.4069959716796875	5.8687900390625	0		
0.00606745195388794	-0.0014477260112762452	0		0.5001202697753906	-2.441419189453125	0		-1.0921405029296876	0.1863504638671875	0		-0.36671096801757813	-2.9289267578125	0		2.0168641357421877	-1.3552677001953124	0		3.295497314453125	-0.4827873229980469	0		4.4638896484375	-0.1432495574951172	0		5.86682177734375	0.2755331726074219	0		-0.40629034423828125	5.86788671875	0		
0.008877507209777832	0.0016199209690093994	0		0.5299419555664062	-2.43961181640625	0		-1.0214827270507814	0.17374118041992187	0		-0.33674734497070313	-2.913128173828125	0		2.0178341064453127	-1.3371624755859375	0		3.2822734375	-0.4835317993164063	0		4.48363134765625	-0.14730691528320314	0		5.859400390625	0.24309751892089843	0		-0.4226518249511719	5.8591376953125	0		
0.005638776779174804	-0.001266834020614624	0		0.4888052673339844	-2.434121826171875	0		-1.028860107421875	0.1568851318359375	0		-0.3747328491210937	-2.892676025390625	0		2.0107742919921874	-1.322992919921875	0		3.286107421875	-0.47945831298828123	0		4.48647216796875	-0.14221295166015624	0		5.86651611328125	0.2760316467285156	0		-0.4229135437011719	5.85921728515625	0		
0.005439144134521484	-0.0011970670223236085	0		0.5145957641601563	-2.437302490234375	0		-1.030266845703125	0.13595687866210937	0		-0.3746922912597656	-2.8706103515625	0		2.0105859375	-1.322906005859375	0		3.323870849609375	-0.483732666015625	0		4.50405712890625	-0.1642802734375	0		5.8627392578125	0.2590246887207031	0		-0.45721051025390624	5.85461669921875	0		
